<svg width="44" height="44" viewBox="0 0 44 44" fill="none" xmlns="http://www.w3.org/2000/svg">
<path d="M12.8332 14.667H7.33317C5.3165 14.667 3.6665 13.017 3.6665 11.0003V7.33366C3.6665 5.31699 5.3165 3.66699 7.33317 3.66699H12.8332C14.8498 3.66699 16.4998 5.31699 16.4998 7.33366V11.0003C16.4998 13.017 14.8498 14.667 12.8332 14.667Z" stroke="#FAFAFA" stroke-width="2" stroke-linecap="round" stroke-linejoin="round"/>
<path d="M38.1333 12.8333H31.5333C30.3233 12.8333 29.3333 11.8433 29.3333 10.6333V7.70002C29.3333 6.49002 30.3233 5.5 31.5333 5.5H38.1333C39.3433 5.5 40.3333 6.49002 40.3333 7.70002V10.6333C40.3333 11.8433 39.3433 12.8333 38.1333 12.8333Z" stroke="#FAFAFA" stroke-width="2" stroke-linecap="round" stroke-linejoin="round"/>
<path d="M38.1333 26.5833H31.5333C30.3233 26.5833 29.3333 25.5933 29.3333 24.3833V21.45C29.3333 20.24 30.3233 19.25 31.5333 19.25H38.1333C39.3433 19.25 40.3333 20.24 40.3333 21.45V24.3833C40.3333 25.5933 39.3433 26.5833 38.1333 26.5833Z" stroke="#FAFAFA" stroke-width="2" stroke-linecap="round" stroke-linejoin="round"/>
<path d="M16.5 9.16699H29.3333" stroke="#FAFAFA" stroke-width="2" stroke-miterlimit="10" stroke-linecap="round" stroke-linejoin="round"/>
<path d="M22.9165 9.16699V33.0003C22.9165 35.017 24.5665 36.667 26.5832 36.667L23.5542 35.0603" fill="white"/>
<path d="M22.9165 9.16699V33.0003C22.9165 35.017 24.5665 36.667 26.5832 36.667L23.5542 35.0603" stroke="#FAFAFA" stroke-width="2" stroke-miterlimit="10" stroke-linecap="round" stroke-linejoin="round"/>
<path d="M22.9165 22.917H29.3332" stroke="#FAFAFA" stroke-width="2" stroke-miterlimit="10" stroke-linecap="round" stroke-linejoin="round"/>
<path d="M38.1333 40.3333H31.5333C30.3233 40.3333 29.3333 39.3433 29.3333 38.1333V35.2C29.3333 33.99 30.3233 33 31.5333 33H38.1333C39.3433 33 40.3333 33.99 40.3333 35.2V38.1333C40.3333 39.3433 39.3433 40.3333 38.1333 40.3333Z" stroke="#FAFAFA" stroke-width="2" stroke-linecap="round" stroke-linejoin="round"/>
</svg>
