<svg width="50" height="50" viewBox="0 0 50 50" fill="none" xmlns="http://www.w3.org/2000/svg">
<path d="M33.5938 27.3438L42.1875 18.75M22.6562 21.0938L28.9062 27.3438M7.8125 31.25L17.9688 21.0938" stroke="#FAFAFA" stroke-width="2" stroke-linecap="round" stroke-linejoin="round"/>
<path d="M44.5312 18.75C45.8257 18.75 46.875 17.7007 46.875 16.4062C46.875 15.1118 45.8257 14.0625 44.5312 14.0625C43.2368 14.0625 42.1875 15.1118 42.1875 16.4062C42.1875 17.7007 43.2368 18.75 44.5312 18.75Z" stroke="#FAFAFA" stroke-width="2" stroke-linecap="round" stroke-linejoin="round"/>
<path d="M31.25 32.0312C32.5444 32.0312 33.5938 30.9819 33.5938 29.6875C33.5938 28.3931 32.5444 27.3438 31.25 27.3438C29.9556 27.3438 28.9062 28.3931 28.9062 29.6875C28.9062 30.9819 29.9556 32.0312 31.25 32.0312Z" stroke="#FAFAFA" stroke-width="2" stroke-linecap="round" stroke-linejoin="round"/>
<path d="M20.3125 21.0938C21.6069 21.0938 22.6562 20.0444 22.6562 18.75C22.6562 17.4556 21.6069 16.4062 20.3125 16.4062C19.0181 16.4062 17.9688 17.4556 17.9688 18.75C17.9688 20.0444 19.0181 21.0938 20.3125 21.0938Z" stroke="#FAFAFA" stroke-width="2" stroke-linecap="round" stroke-linejoin="round"/>
<path d="M5.46875 35.9375C6.76317 35.9375 7.8125 34.8882 7.8125 33.5938C7.8125 32.2993 6.76317 31.25 5.46875 31.25C4.17433 31.25 3.125 32.2993 3.125 33.5938C3.125 34.8882 4.17433 35.9375 5.46875 35.9375Z" stroke="#FAFAFA" stroke-width="2" stroke-linecap="round" stroke-linejoin="round"/>
</svg>
