<svg width="44" height="44" viewBox="0 0 44 44" fill="none" xmlns="http://www.w3.org/2000/svg">
<path d="M21.6151 21.7797C20.6251 21.7797 19.6167 21.5963 18.8284 21.248L8.01173 16.4447C5.26173 15.2163 4.8584 13.5663 4.8584 12.668C4.8584 11.7697 5.26173 10.1197 8.01173 8.89134L18.8284 4.08801C20.4234 3.37301 22.8251 3.37301 24.4201 4.08801L35.2551 8.89134C37.9867 10.1013 38.4084 11.7697 38.4084 12.668C38.4084 13.5663 38.0051 15.2163 35.2551 16.4447L24.4201 21.248C23.6134 21.6147 22.6234 21.7797 21.6151 21.7797ZM21.6151 6.30634C20.9917 6.30634 20.3867 6.39801 19.9467 6.59967L9.13006 11.403C8.01173 11.9163 7.6084 12.4297 7.6084 12.668C7.6084 12.9063 8.01173 13.438 9.11173 13.933L19.9284 18.7363C20.8084 19.1213 22.4034 19.1213 23.2834 18.7363L34.1184 13.933C35.2367 13.438 35.6401 12.9063 35.6401 12.668C35.6401 12.4297 35.2367 11.898 34.1184 11.403L23.3017 6.59967C22.8617 6.41634 22.2384 6.30634 21.6151 6.30634Z" fill="#FAFAFA"/>
<path d="M22 31.332C21.3033 31.332 20.6067 31.1853 19.9467 30.892L7.49833 25.3553C5.61 24.5303 4.125 22.2387 4.125 20.167C4.125 19.4153 4.74833 18.792 5.5 18.792C6.25167 18.792 6.875 19.4153 6.875 20.167C6.875 21.1753 7.7 22.4403 8.61667 22.862L21.065 28.3987C21.6517 28.6553 22.33 28.6553 22.935 28.3987L35.3833 22.862C36.3 22.4587 37.125 21.1753 37.125 20.167C37.125 19.4153 37.7483 18.792 38.5 18.792C39.2517 18.792 39.875 19.4153 39.875 20.167C39.875 22.2387 38.39 24.5303 36.5017 25.3737L24.0533 30.9103C23.3933 31.1853 22.6967 31.332 22 31.332Z" fill="#FAFAFA"/>
<path d="M22 40.4988C21.3033 40.4988 20.6067 40.3521 19.9467 40.0588L7.49833 34.5221C5.445 33.6054 4.125 31.5704 4.125 29.3154C4.125 28.5638 4.74833 27.9404 5.5 27.9404C6.25167 27.9404 6.875 28.5821 6.875 29.3338C6.875 30.4888 7.55333 31.5521 8.61667 32.0288L21.065 37.5654C21.6517 37.8221 22.33 37.8221 22.935 37.5654L35.3833 32.0288C36.4467 31.5521 37.125 30.5071 37.125 29.3338C37.125 28.5821 37.7483 27.9588 38.5 27.9588C39.2517 27.9588 39.875 28.5821 39.875 29.3338C39.875 31.5888 38.555 33.6238 36.5017 34.5404L24.0533 40.0771C23.3933 40.3521 22.6967 40.4988 22 40.4988Z" fill="#FAFAFA"/>
</svg>
